<?xml version="1.0" encoding="UTF-8"?>
<svg xmlns="http://www.w3.org/2000/svg" id="Layer_2" data-name="Layer 2" viewBox="0 0 822.91 517.44">
  <defs>
    <style>
      .cls-1 {
        fill: #00568f;
      }
    </style>
  </defs>
  <g id="Layer_1-2" data-name="Layer 1">
    <g>
      <g>
        <polygon class="cls-1" points="407.78 447.09 295.42 376.43 87.56 517.44 186.52 319.83 0 174.64 237.25 185.21 315.6 0 359.61 199.61 315.88 99.65 275.02 235.34 173.34 234.41 255.21 296.72 195.04 397.4 291.56 339.49 407.78 447.09"></polygon>
        <g>
          <path class="cls-1" d="M497.67,399.13h-93.61c-25.86,0-47.93-9.16-66.2-27.49-18.28-18.33-27.42-40.46-27.42-66.38s9.14-48.05,27.42-66.38c18.27-18.33,40.34-27.49,66.2-27.49h93.61v42.91h-93.61c-14.09,0-26.08,4.97-35.97,14.89s-14.84,21.95-14.84,36.08,4.95,26.15,14.84,36.07c9.89,9.93,21.89,14.89,35.97,14.89h50.82v-29.5h-26.75l-18.72-42.91h88.26v115.33Z"></path>
          <path class="cls-1" d="M670.89,399.13h-160.48V211.38h42.8v144.84h117.68v42.91Z"></path>
          <path class="cls-1" d="M822.91,211.38l-82.91,187.75h-34.78l-82.91-187.75h47.97l52.33,118.5,52.33-118.5h47.97Z"></path>
        </g>
        <g>
          <path class="cls-1" d="M423.71,414.14h-10.01v32.35h-2.47v-32.35h-9.99v-2.51h22.47v2.51Z"></path>
          <path class="cls-1" d="M439.34,431.98h-8.49v14.51h-2.49v-34.87h9.49c1.52,0,2.9,.22,4.12,.67,1.22,.45,2.27,1.11,3.13,1.98,.86,.87,1.52,1.94,1.99,3.22s.69,2.75,.69,4.41c0,1.15-.15,2.23-.44,3.25s-.71,1.93-1.24,2.74c-.53,.81-1.17,1.52-1.92,2.11-.74,.59-1.56,1.05-2.46,1.37l7.3,14.82v.31h-2.63l-7.06-14.51Zm-8.49-2.51h7.56c1.14,0,2.14-.21,3-.62,.86-.42,1.58-.97,2.16-1.66,.58-.69,1.01-1.5,1.29-2.42,.29-.92,.43-1.87,.43-2.86,0-1.2-.16-2.28-.48-3.23s-.8-1.77-1.43-2.44c-.64-.67-1.41-1.19-2.34-1.54s-1.99-.54-3.19-.54h-7v15.33Z"></path>
          <path class="cls-1" d="M470.28,436.73h-13.26l-3.01,9.77h-2.59l11.05-34.87h2.35l11.05,34.87h-2.57l-3.03-9.77Zm-12.5-2.51h11.72l-5.86-18.99-5.86,18.99Z"></path>
          <path class="cls-1" d="M501.91,446.5h-2.47l-16.79-29.84v29.84h-2.49v-34.87h2.49l16.81,29.86v-29.86h2.45v34.87Z"></path>
          <path class="cls-1" d="M525.87,437.92c0-.96-.13-1.81-.39-2.55-.26-.74-.7-1.42-1.32-2.04s-1.44-1.18-2.46-1.69c-1.02-.51-2.29-1.02-3.81-1.53-1.47-.49-2.8-1.03-3.97-1.62-1.18-.58-2.18-1.27-3-2.05-.82-.78-1.46-1.68-1.91-2.71s-.67-2.22-.67-3.59,.24-2.56,.72-3.66c.48-1.1,1.16-2.05,2.03-2.84s1.91-1.4,3.11-1.84,2.52-.66,3.95-.66c1.54,0,2.93,.27,4.16,.81,1.24,.54,2.29,1.29,3.16,2.23,.87,.94,1.54,2.04,2.01,3.3,.47,1.26,.7,2.62,.7,4.07h-2.49c0-1.13-.17-2.18-.5-3.15s-.82-1.8-1.46-2.5-1.43-1.25-2.37-1.65c-.94-.4-2.01-.6-3.21-.6s-2.26,.17-3.18,.51-1.68,.81-2.29,1.39-1.07,1.27-1.38,2.05-.47,1.61-.47,2.49c0,.83,.13,1.6,.39,2.3s.7,1.35,1.31,1.95c.62,.6,1.42,1.16,2.43,1.68s2.24,1.01,3.71,1.47c1.54,.51,2.91,1.07,4.11,1.68s2.22,1.32,3.05,2.14c.83,.82,1.46,1.77,1.89,2.84,.43,1.07,.64,2.31,.64,3.71s-.25,2.69-.75,3.82-1.2,2.08-2.09,2.86c-.89,.78-1.95,1.38-3.18,1.8s-2.57,.62-4.01,.62c-.87,0-1.74-.09-2.62-.26s-1.72-.44-2.53-.8-1.56-.82-2.27-1.38-1.31-1.23-1.83-2c-.51-.77-.92-1.66-1.22-2.66-.3-1-.45-2.11-.45-3.34h2.47c0,1.47,.25,2.71,.76,3.72,.51,1.01,1.16,1.83,1.97,2.45s1.71,1.07,2.71,1.35c1,.28,2.01,.42,3.01,.42,1.14,0,2.17-.16,3.1-.47,.93-.31,1.73-.75,2.39-1.33,.66-.57,1.17-1.27,1.52-2.07s.53-1.7,.53-2.69Z"></path>
          <path class="cls-1" d="M536.14,432.3v14.2h-2.47v-34.87h9.95c1.6,0,3.02,.26,4.24,.77,1.22,.51,2.25,1.23,3.08,2.14,.83,.92,1.45,2.02,1.88,3.29,.42,1.28,.63,2.68,.63,4.21,0,1.61-.21,3.05-.63,4.32-.42,1.27-1.04,2.34-1.87,3.22s-1.85,1.55-3.08,2.01c-1.23,.46-2.65,.69-4.25,.69h-7.48Zm0-2.49h7.48c1.3,0,2.41-.2,3.35-.59s1.7-.93,2.29-1.63c.59-.69,1.02-1.51,1.3-2.45,.28-.94,.42-1.96,.42-3.04s-.14-2.09-.42-3.05c-.28-.97-.72-1.81-1.3-2.54-.59-.73-1.35-1.3-2.29-1.72s-2.05-.63-3.35-.63h-7.48v15.66Z"></path>
          <path class="cls-1" d="M580.56,430.95c0,2.44-.27,4.65-.8,6.62-.53,1.97-1.29,3.65-2.28,5.04-.98,1.39-2.18,2.46-3.58,3.22s-2.97,1.14-4.69,1.14-3.27-.38-4.66-1.14c-1.4-.76-2.6-1.83-3.6-3.22-1-1.39-1.78-3.07-2.33-5.04s-.82-4.18-.82-6.62v-3.74c0-2.44,.27-4.65,.82-6.63s1.32-3.67,2.31-5.07c.99-1.4,2.18-2.47,3.58-3.23,1.4-.76,2.95-1.14,4.66-1.14s3.29,.38,4.69,1.14,2.6,1.84,3.6,3.23c1,1.4,1.76,3.09,2.3,5.07,.53,1.98,.8,4.19,.8,6.63v3.74Zm-2.47-3.78c0-2.06-.2-3.92-.6-5.58-.4-1.66-.98-3.07-1.75-4.23-.76-1.16-1.7-2.05-2.81-2.68-1.11-.63-2.37-.95-3.77-.95s-2.62,.32-3.72,.95-2.04,1.52-2.81,2.68-1.36,2.57-1.77,4.23c-.41,1.66-.61,3.52-.61,5.58v3.78c0,2.08,.21,3.94,.62,5.6,.41,1.66,1.01,3.07,1.79,4.24,.78,1.17,1.72,2.06,2.82,2.68,1.1,.62,2.34,.93,3.72,.93s2.68-.31,3.78-.93c1.1-.62,2.03-1.52,2.79-2.68,.76-1.17,1.33-2.58,1.73-4.24,.39-1.66,.59-3.53,.59-5.6v-3.78Z"></path>
          <path class="cls-1" d="M597.69,431.98h-8.49v14.51h-2.49v-34.87h9.49c1.52,0,2.9,.22,4.12,.67,1.22,.45,2.27,1.11,3.13,1.98s1.52,1.94,1.99,3.22,.69,2.75,.69,4.41c0,1.15-.15,2.23-.44,3.25s-.71,1.93-1.24,2.74-1.17,1.52-1.92,2.11c-.74,.59-1.56,1.05-2.46,1.37l7.3,14.82v.31h-2.63l-7.06-14.51Zm-8.49-2.51h7.56c1.14,0,2.14-.21,3-.62s1.58-.97,2.16-1.66,1.01-1.5,1.29-2.42c.29-.92,.43-1.87,.43-2.86,0-1.2-.16-2.28-.48-3.23-.32-.96-.8-1.77-1.43-2.44-.64-.67-1.41-1.19-2.34-1.54s-1.99-.54-3.19-.54h-7v15.33Z"></path>
          <path class="cls-1" d="M631.07,414.14h-10.01v32.35h-2.47v-32.35h-9.99v-2.51h22.47v2.51Z"></path>
          <path class="cls-1" d="M649.97,436.73h-13.26l-3.01,9.77h-2.59l11.05-34.87h2.35l11.05,34.87h-2.57l-3.03-9.77Zm-12.5-2.51h11.72l-5.86-18.99-5.86,18.99Z"></path>
          <path class="cls-1" d="M677.1,414.14h-10.01v32.35h-2.47v-32.35h-9.99v-2.51h22.47v2.51Z"></path>
          <path class="cls-1" d="M684.82,446.5h-2.47v-34.87h2.47v34.87Z"></path>
          <path class="cls-1" d="M714.33,430.95c0,2.44-.27,4.65-.8,6.62-.53,1.97-1.29,3.65-2.28,5.04-.98,1.39-2.18,2.46-3.58,3.22s-2.97,1.14-4.69,1.14-3.27-.38-4.66-1.14c-1.4-.76-2.6-1.83-3.6-3.22s-1.78-3.07-2.33-5.04c-.55-1.97-.82-4.18-.82-6.62v-3.74c0-2.44,.27-4.65,.82-6.63,.55-1.98,1.32-3.67,2.31-5.07,.99-1.4,2.18-2.47,3.58-3.23s2.95-1.14,4.66-1.14,3.29,.38,4.69,1.14c1.4,.76,2.6,1.84,3.6,3.23,1,1.4,1.76,3.09,2.3,5.07,.53,1.98,.8,4.19,.8,6.63v3.74Zm-2.47-3.78c0-2.06-.2-3.92-.6-5.58-.4-1.66-.98-3.07-1.75-4.23-.76-1.16-1.7-2.05-2.81-2.68s-2.37-.95-3.77-.95-2.62,.32-3.72,.95c-1.1,.63-2.04,1.52-2.81,2.68-.77,1.16-1.36,2.57-1.77,4.23-.41,1.66-.61,3.52-.61,5.58v3.78c0,2.08,.21,3.94,.62,5.6s1.01,3.07,1.79,4.24,1.72,2.06,2.82,2.68c1.1,.62,2.34,.93,3.72,.93s2.68-.31,3.78-.93,2.03-1.52,2.79-2.68,1.33-2.58,1.73-4.24c.39-1.66,.59-3.53,.59-5.6v-3.78Z"></path>
          <path class="cls-1" d="M742.3,446.5h-2.47l-16.79-29.84v29.84h-2.49v-34.87h2.49l16.81,29.86v-29.86h2.45v34.87Z"></path>
        </g>
      </g>
      <g>
        <path class="cls-1" d="M398.91,197.57h-3.27l-.78-3.45c-1.36,1.56-2.73,2.64-4.09,3.24s-2.93,.9-4.71,.9c-2.18,0-4.14-.4-5.87-1.21-1.73-.81-3.2-1.91-4.4-3.3s-2.12-3.02-2.76-4.88c-.64-1.86-.96-3.84-.96-5.95s.32-4.05,.96-5.91c.64-1.86,1.56-3.49,2.76-4.88s2.67-2.5,4.4-3.32c1.73-.82,3.69-1.23,5.87-1.23,1.58,0,3.09,.21,4.52,.64,1.43,.42,2.71,1.05,3.83,1.89,1.12,.84,2.05,1.88,2.78,3.14,.74,1.26,1.2,2.71,1.39,4.35h-4.99c-.14-.96-.43-1.8-.88-2.52-.45-.72-1.02-1.33-1.7-1.83s-1.45-.86-2.29-1.11c-.85-.25-1.73-.37-2.66-.37-1.56,0-2.9,.32-4.03,.94-1.13,.63-2.05,1.47-2.76,2.52-.71,1.05-1.23,2.25-1.58,3.59-.34,1.34-.51,2.71-.51,4.1s.17,2.76,.51,4.1,.86,2.54,1.58,3.59c.71,1.05,1.63,1.9,2.76,2.52,1.13,.63,2.48,.94,4.03,.94,1.31,.03,2.47-.14,3.48-.51,1.01-.37,1.86-.9,2.56-1.6s1.22-1.55,1.58-2.57c.35-1.01,.55-2.13,.57-3.36h-7.78v-3.9h12.44v15.43Z"></path>
        <path class="cls-1" d="M404.48,168.27h13.96c3.22,0,5.63,.7,7.24,2.09s2.41,3.34,2.41,5.83c0,1.4-.2,2.55-.61,3.47s-.89,1.66-1.43,2.22-1.08,.96-1.62,1.21-.92,.41-1.17,.49v.08c.44,.05,.91,.19,1.41,.41s.98,.57,1.41,1.05,.8,1.1,1.08,1.87,.43,1.72,.43,2.87c0,1.72,.13,3.29,.39,4.7,.26,1.41,.66,2.42,1.21,3.02h-5.48c-.38-.63-.61-1.33-.68-2.09-.07-.77-.1-1.5-.1-2.22,0-1.34-.08-2.5-.25-3.47-.16-.97-.46-1.78-.9-2.42s-1.03-1.11-1.78-1.42c-.75-.3-1.71-.45-2.89-.45h-7.53v12.07h-5.12v-29.3Zm5.12,13.34h8.39c1.64,0,2.88-.39,3.72-1.17s1.27-1.95,1.27-3.51c0-.93-.14-1.69-.41-2.28-.27-.59-.65-1.05-1.12-1.37-.48-.33-1.02-.55-1.64-.66-.61-.11-1.25-.16-1.9-.16h-8.31v9.15Z"></path>
        <path class="cls-1" d="M433.29,168.27h21.04v4.43h-15.92v7.67h14.73v4.19h-14.73v8.58h16.21v4.43h-21.32v-29.3Z"></path>
        <path class="cls-1" d="M459.08,168.27h21.04v4.43h-15.92v7.67h14.73v4.19h-14.73v8.58h16.21v4.43h-21.32v-29.3Z"></path>
        <path class="cls-1" d="M484.66,168.27h5.4l13.34,21.59h.08v-21.59h4.87v29.3h-5.4l-13.3-21.55h-.12v21.55h-4.87v-29.3Z"></path>
        <path class="cls-1" d="M525.79,168.27h5.12v24.87h14.86v4.43h-19.97v-29.3Z"></path>
        <path class="cls-1" d="M549.28,168.27h21.04v4.43h-15.92v7.67h14.73v4.19h-14.73v8.58h16.21v4.43h-21.32v-29.3Z"></path>
        <path class="cls-1" d="M582.88,168.27h5.44l11.25,29.3h-5.48l-2.74-7.76h-11.66l-2.74,7.76h-5.28l11.21-29.3Zm-1.8,17.65h8.92l-4.38-12.6h-.12l-4.42,12.6Z"></path>
        <path class="cls-1" d="M602.36,168.27h20.18v4.43h-15.06v7.67h13.22v4.19h-13.22v13.01h-5.12v-29.3Z"></path>
        <path class="cls-1" d="M634.69,168.27h5.32l7.33,23.19h.08l7.49-23.19h5.2l-9.99,29.3h-5.69l-9.74-29.3Z"></path>
        <path class="cls-1" d="M663.01,168.27h5.12v29.3h-5.12v-29.3Z"></path>
        <path class="cls-1" d="M674.39,168.27h21.04v4.43h-15.92v7.67h14.73v4.19h-14.73v8.58h16.21v4.43h-21.32v-29.3Z"></path>
        <path class="cls-1" d="M697.39,168.27h23.66v4.43h-9.29v24.87h-5.12v-24.87h-9.25v-4.43Z"></path>
        <path class="cls-1" d="M735.62,168.27h5.4l13.34,21.59h.08v-21.59h4.87v29.3h-5.4l-13.3-21.55h-.12v21.55h-4.87v-29.3Z"></path>
        <path class="cls-1" d="M773.19,168.27h5.44l11.25,29.3h-5.48l-2.74-7.76h-11.66l-2.74,7.76h-5.28l11.21-29.3Zm-1.8,17.65h8.92l-4.38-12.6h-.12l-4.42,12.6Z"></path>
        <path class="cls-1" d="M792.59,168.27h7.2l8.06,22.94h.08l7.86-22.94h7.12v29.3h-4.87v-22.61h-.08l-8.1,22.61h-4.21l-8.1-22.61h-.08v22.61h-4.87v-29.3Z"></path>
      </g>
    </g>
  </g>
</svg>
